<?xml version="1.0" encoding="iso-8859-1"?>
<!-- Generator: Adobe Illustrator 16.0.0, SVG Export Plug-In . SVG Version: 6.00 Build 0)  -->
<!DOCTYPE svg PUBLIC "-//W3C//DTD SVG 1.1//EN" "http://www.w3.org/Graphics/SVG/1.1/DTD/svg11.dtd">
<svg xmlns="http://www.w3.org/2000/svg" xmlns:xlink="http://www.w3.org/1999/xlink" version="1.1" id="Capa_1" x="0px" y="0px" width="512px" height="512px" viewBox="0 0 32 32" style="enable-background:new 0 0 32 32;" xml:space="preserve">
<g>
	<g>
		<polygon points="15.002,8.691 21.504,1.695 28.311,10.265 29.68,10.398 21.96,0.116 10.971,2.825 4.172,10.016   " fill="#add8e6"/>
		<path d="M27.445,18.734v-8.47l-5.979-7.598l-6.158,6.626L4.737,10.585v8.145L0,22.671l2.813,0.037l-0.001,7.84l12.308,1.336    l7.522-0.766v-7.73l4.434-0.084v7.363l2.213-0.226v-7.56H32L27.445,18.734z M6.002,12.464l3.033-0.301v3.462l-3.033,0.19V12.464z     M9.134,27.146L6.095,26.97v-3.354l3.039,0.065V27.146z M9.134,21.523l-3.039,0.002v-3.354l3.039-0.113V21.523z M10.479,11.982    l3.341-0.332v3.635l-3.341,0.212V11.982z M13.929,27.386l-3.348-0.191v-3.518l3.348,0.07V27.386z M13.929,21.479l-3.348,0.005    v-3.519l3.348-0.125V21.479z M16.667,11.612l3.622,0.363v3.544l-3.622-0.229V11.612z M16.789,17.693l3.613,0.143v3.54    l-3.613-0.009V17.693z M20.578,27.121l-3.602,0.207v-3.666l3.602-0.073V27.121z M21.256,9.036    c-0.686-0.091-1.247-1.006-1.247-2.043s0.563-1.781,1.247-1.664c0.674,0.115,1.215,1.027,1.215,2.038    C22.471,8.378,21.93,9.125,21.256,9.036z M22.371,12.212l3.227,0.322v3.349l-3.227-0.204V12.212z M25.698,21.415l-3.218-0.008    v-3.463l3.218,0.126V21.415z" fill="#add8e6"/>
	</g>
</g>
<g>
</g>
<g>
</g>
<g>
</g>
<g>
</g>
<g>
</g>
<g>
</g>
<g>
</g>
<g>
</g>
<g>
</g>
<g>
</g>
<g>
</g>
<g>
</g>
<g>
</g>
<g>
</g>
<g>
</g>
</svg>
